# xmcd
#
# Track frame offsets:
#	150
#	18941
#	34790
#	51305
#	68607
#	80083
#	99080
#	116642
#	133689
#	150018
#	169387
#	188586
#
# Disc length: 2703 seconds
#
# Revision: 2
# Processed by: cddbd v1.5PL3 Copyright (c) Steve Scherf et al.
# Submitted via: audiograbber 1.83.01
#
DISCID=8e0a8d0c
DTITLE=Various Artist - Goldene Schlager
DYEAR=2000
DGENRE=Country
TTITLE0=Jürgen Drews - Irgendwann, irgendwo, irgendwie
TTITLE1=Howard Carpendale - Sorry
TTITLE2=Matthias Reim - Verdammt, ich lieb' dich
TTITLE3=Karel Gott - Babicka
TTITLE4=Peter Kraus - Sugar Baby
TTITLE5=Volker Lechtenbrink - Ich mag
TTITLE6=Nino de Angelo - Jenseits von Eden
TTITLE7=Felix Deluxe - Taxi nach Paris
TTITLE8=Vicky Leandros - Tango d'amor
TTITLE9=Peter Cornelius - Der Kaffee ist fertig
TTITLE10=Hanne Haller - Mein lieber Mann
TTITLE11=Milva - Hurra, wir leben noch
EXTD=
EXTT0=
EXTT1=
EXTT2=
EXTT3=
EXTT4=
EXTT5=
EXTT6=
EXTT7=
EXTT8=
EXTT9=
EXTT10=
EXTT11=
PLAYORDER=
